<?xml version="1.0" encoding="UTF-8" standalone="no"?>
<!DOCTYPE svg PUBLIC "-//W3C//DTD SVG 1.1//EN" "http://www.w3.org/Graphics/SVG/1.1/DTD/svg11.dtd">
<svg preserveAspectRatio="none" viewBox="0 0 762 255" version="1.1" xmlns="http://www.w3.org/2000/svg" xmlns:xlink="http://www.w3.org/1999/xlink" xml:space="preserve" xmlns:serif="http://www.serif.com/" style="fill-rule:evenodd;clip-rule:evenodd;stroke-linejoin:round;stroke-miterlimit:2;">
    <g id="rect4031" transform="matrix(1.00059,-1.62109e-16,0.754828,-0.998589,72.5057,345.013)">
        <path d="M-127.27,90.14L-85.1,90.7L-16.7,90.5C29.556,90.5 37.237,85.806 37.237,110.306L34.354,265.906C34.354,278.206 2.402,313.2 -4.998,321.2C-12.398,329.2 -30.096,344.323 -41.596,344.323L-148.6,345.5C-171.5,345.5 -189.9,339.9 -189.9,315.3C-189.9,315.3 -194.989,192.233 -183.752,154.681C-178.086,135.748 -140.983,95.679 -127.27,90.14Z" style="fill-rule:nonzero;"/>
    </g>
    <g id="rect40311" serif:id="rect4031" transform="matrix(1.00059,-1.62109e-16,0.754828,-0.998589,221.892,345.013)">
        <path d="M-131.2,90.5L-85.1,90.7L-16.7,90.5C29.556,90.5 37.237,85.806 37.237,110.306L34.354,265.906C34.354,278.206 2.402,313.2 -4.998,321.2C-12.398,329.2 -30.096,344.323 -41.596,344.323L-148.6,345.5C-171.5,345.5 -189.9,339.9 -189.9,315.3L-190.2,153C-190.2,146.6 -172.9,128.7 -165.4,120.6C-158,112.6 -142.7,90.4 -131.2,90.5Z" style="fill-rule:nonzero;"/>
    </g>
    <g id="rect40312" serif:id="rect4031" transform="matrix(1.00059,-1.62109e-16,0.754828,-0.998589,371.241,345.013)">
        <path d="M-131.2,90.5L-85.1,90.7L-16.7,90.5C29.556,90.5 37.237,85.806 37.237,110.306L34.354,265.906C34.354,278.206 2.402,313.2 -4.998,321.2C-12.398,329.2 -30.096,344.323 -41.596,344.323L-148.6,345.5C-171.5,345.5 -189.9,339.9 -189.9,315.3L-190.2,153C-190.2,146.6 -172.9,128.7 -165.4,120.6C-158,112.6 -142.7,90.4 -131.2,90.5Z" style="fill-rule:nonzero;"/>
    </g>
    <g id="rect40313" serif:id="rect4031" transform="matrix(1.00059,-1.62109e-16,0.754828,-0.998589,520.677,345.013)">
        <path d="M-131.2,90.5L-85.1,90.7L-16.7,90.5C29.556,90.5 37.237,85.806 37.237,110.306L34.354,265.906C34.354,278.206 2.402,313.2 -4.998,321.2C-12.398,329.2 -30.096,344.323 -41.596,344.323L-148.6,345.5C-171.5,345.5 -189.9,339.9 -189.9,315.3L-190.2,153C-190.2,146.6 -172.9,128.7 -165.4,120.6C-158,112.6 -142.7,90.4 -131.2,90.5Z" style="fill-rule:nonzero;"/>
    </g>
    <g id="rect3767" transform="matrix(1.00059,-1.62109e-16,0.754828,-0.998589,72.5057,345.013)">
        <path d="M-122.4,103.2L-17.9,103.2C-4.1,103.2 13.896,106.06 13.996,119.86L14.896,272.26C14.896,274.26 -4.7,312.5 -17.9,312.5L-122.4,312.5C-136.2,312.5 -147.3,301.4 -147.3,287.6L-147.3,128.1C-147.3,114.3 -136.2,103.2 -122.4,103.2Z" style="fill:rgb(205,218,205);fill-rule:nonzero;"/>
    </g>
    <g id="rect37671" serif:id="rect3767" transform="matrix(1.00059,-1.62109e-16,0.754828,-0.998589,221.892,345.013)">
        <path d="M-122.4,103.2L-17.9,103.2C-4.1,103.2 13.896,106.06 13.996,119.86L14.896,272.26C14.896,274.26 -4.7,312.5 -17.9,312.5L-122.4,312.5C-136.2,312.5 -147.3,301.4 -147.3,287.6L-147.3,128.1C-147.3,114.3 -136.2,103.2 -122.4,103.2Z" style="fill:rgb(205,218,205);fill-rule:nonzero;"/>
    </g>
    <g id="rect37672" serif:id="rect3767" transform="matrix(1.00059,-1.62109e-16,0.754828,-0.998589,371.241,345.013)">
        <path d="M-122.4,103.2L-17.9,103.2C-4.1,103.2 13.896,106.06 13.996,119.86L14.896,272.26C14.896,274.26 -4.7,312.5 -17.9,312.5L-122.4,312.5C-136.2,312.5 -147.3,301.4 -147.3,287.6L-147.3,128.1C-147.3,114.3 -136.2,103.2 -122.4,103.2Z" style="fill:rgb(205,218,205);fill-rule:nonzero;"/>
    </g>
    <g id="rect37673" serif:id="rect3767" transform="matrix(1.00059,-1.62109e-16,0.754828,-0.998589,520.677,345.013)">
        <path d="M-122.4,103.2L-17.9,103.2C-4.1,103.2 13.896,106.06 13.996,119.86L14.896,272.26C14.896,274.26 -4.7,312.5 -17.9,312.5L-122.4,312.5C-136.2,312.5 -147.3,301.4 -147.3,287.6L-147.3,128.1C-147.3,114.3 -136.2,103.2 -122.4,103.2Z" style="fill:rgb(205,218,205);fill-rule:nonzero;"/>
    </g>
    <g id="rect3861" transform="matrix(1.00059,-1.62109e-16,0.754828,-0.998589,72.5057,345.013)">
        <path d="M-137.4,118.1L-37.8,118.1C-24.1,118.1 -1.483,116.06 -1.483,129.76L-1.483,289.26C-1.483,303.06 -24,327.4 -37.8,327.4L-137.4,327.4C-151.1,327.4 -162.3,316.2 -162.3,302.5L-162.3,143.1C-162.3,129.3 -151.1,118.1 -137.4,118.1Z" style="fill:rgb(5,61,5);fill-rule:nonzero;"/>
    </g>
    <g id="rect38611" serif:id="rect3861" transform="matrix(1.00059,-1.62109e-16,0.754828,-0.998589,221.892,345.013)">
        <path d="M-137.4,118.1L-37.8,118.1C-24.1,118.1 -1.483,116.06 -1.483,129.76L-1.483,289.26C-1.483,303.06 -24,327.4 -37.8,327.4L-137.4,327.4C-151.1,327.4 -162.3,316.2 -162.3,302.5L-162.3,143.1C-162.3,129.3 -151.1,118.1 -137.4,118.1Z" style="fill:rgb(5,61,5);fill-rule:nonzero;"/>
    </g>
    <g id="rect38612" serif:id="rect3861" transform="matrix(1.00059,-1.62109e-16,0.754828,-0.998589,371.241,345.013)">
        <path d="M-137.4,118.1L-37.8,118.1C-24.1,118.1 -1.483,116.06 -1.483,129.76L-1.483,289.26C-1.483,303.06 -24,327.4 -37.8,327.4L-137.4,327.4C-151.1,327.4 -162.3,316.2 -162.3,302.5L-162.3,143.1C-162.3,129.3 -151.1,118.1 -137.4,118.1Z" style="fill:rgb(5,61,5);fill-rule:nonzero;"/>
    </g>
    <g id="rect38613" serif:id="rect3861" transform="matrix(1.00059,-1.62109e-16,0.754828,-0.998589,520.677,345.013)">
        <path d="M-137.4,118.1L-37.8,118.1C-24.1,118.1 -1.483,116.06 -1.483,129.76L-1.483,289.26C-1.483,303.06 -24,327.4 -37.8,327.4L-137.4,327.4C-151.1,327.4 -162.3,316.2 -162.3,302.5L-162.3,143.1C-162.3,129.3 -151.1,118.1 -137.4,118.1Z" style="fill:rgb(5,61,5);fill-rule:nonzero;"/>
    </g>
    <g id="rect3765" transform="matrix(1.00059,-1.62109e-16,0.754828,-0.998589,520.677,345.013)">
        <path d="M-147.3,133.1L-42.8,133.1C-29.1,133.1 -17.9,144.3 -17.9,158L-17.9,307.5C-17.9,321.3 -29,332.4 -42.8,332.4L-147.3,332.4C-161,332.4 -172.2,321.2 -172.2,307.5L-172.2,158C-172.2,144.3 -161.1,133.1 -147.3,133.1Z" style="fill:rgb(2,76,2);fill-rule:nonzero;"/>
    </g>
    <g id="rect37651" serif:id="rect3765" transform="matrix(1.00059,-1.62109e-16,0.754828,-0.998589,72.5057,345.013)">
        <path d="M-147.3,133.1L-42.8,133.1C-29.1,133.1 -17.9,144.3 -17.9,158L-17.9,307.5C-17.9,321.3 -29,332.4 -42.8,332.4L-147.3,332.4C-161,332.4 -172.2,321.2 -172.2,307.5L-172.2,158C-172.2,144.3 -161.1,133.1 -147.3,133.1Z" style="fill:rgb(2,76,2);fill-rule:nonzero;"/>
    </g>
    <g id="rect37652" serif:id="rect3765" transform="matrix(1.00059,-1.62109e-16,0.754828,-0.998589,221.892,345.013)">
        <path d="M-147.3,133.1L-42.8,133.1C-29.1,133.1 -17.9,144.3 -17.9,158L-17.9,307.5C-17.9,321.3 -29,332.4 -42.8,332.4L-147.3,332.4C-161,332.4 -172.2,321.2 -172.2,307.5L-172.2,158C-172.2,144.3 -161.1,133.1 -147.3,133.1Z" style="fill:rgb(2,76,2);fill-rule:nonzero;"/>
    </g>
    <g id="rect37653" serif:id="rect3765" transform="matrix(1.00059,-1.62109e-16,0.754828,-0.998589,371.241,345.013)">
        <path d="M-147.3,133.1L-42.8,133.1C-29.1,133.1 -17.9,144.3 -17.9,158L-17.9,307.5C-17.9,321.3 -29,332.4 -42.8,332.4L-147.3,332.4C-161,332.4 -172.2,321.2 -172.2,307.5L-172.2,158C-172.2,144.3 -161.1,133.1 -147.3,133.1Z" style="fill:rgb(2,76,2);fill-rule:nonzero;"/>
    </g>
    <g id="rect3008" transform="matrix(1.00059,-1.62109e-16,0.754828,-0.998589,72.5057,345.013)">
        <path d="M-157.3,143.1L-47.8,143.1C-36.8,143.1 -27.9,152 -27.9,163L-27.9,312.5C-27.9,323.5 -36.8,332.4 -47.8,332.4L-157.3,332.4C-168.3,332.4 -177.2,323.5 -177.2,312.5L-177.2,163C-177.2,152 -168.3,143.1 -157.3,143.1Z" style="fill:rgb(0,95,0);fill-rule:nonzero;"/>
    </g>
    <g id="rect30081" serif:id="rect3008" transform="matrix(1.00059,-1.62109e-16,0.754828,-0.998589,221.892,345.013)">
        <path d="M-157.3,143.1L-47.8,143.1C-36.8,143.1 -27.9,152 -27.9,163L-27.9,312.5C-27.9,323.5 -36.8,332.4 -47.8,332.4L-157.3,332.4C-168.3,332.4 -177.2,323.5 -177.2,312.5L-177.2,163C-177.2,152 -168.3,143.1 -157.3,143.1Z" style="fill:rgb(0,95,0);fill-rule:nonzero;"/>
    </g>
    <g id="rect30082" serif:id="rect3008" transform="matrix(1.00059,-1.62109e-16,0.754828,-0.998589,371.241,345.013)">
        <path d="M-157.3,143.1L-47.8,143.1C-36.8,143.1 -27.9,152 -27.9,163L-27.9,312.5C-27.9,323.5 -36.8,332.4 -47.8,332.4L-157.3,332.4C-168.3,332.4 -177.2,323.5 -177.2,312.5L-177.2,163C-177.2,152 -168.3,143.1 -157.3,143.1Z" style="fill:rgb(0,95,0);fill-rule:nonzero;"/>
    </g>
    <g id="rect30083" serif:id="rect3008" transform="matrix(1.00059,-1.62109e-16,0.754828,-0.998589,520.677,345.013)">
        <path d="M-157.3,143.1L-47.8,143.1C-36.8,143.1 -27.9,152 -27.9,163L-27.9,312.5C-27.9,323.5 -36.8,332.4 -47.8,332.4L-157.3,332.4C-168.3,332.4 -177.2,323.5 -177.2,312.5L-177.2,163C-177.2,152 -168.3,143.1 -157.3,143.1Z" style="fill:rgb(0,95,0);fill-rule:nonzero;"/>
    </g>
</svg>
